<svg width="428" height="556" viewBox="0 0 428 556" fill="none" xmlns="http://www.w3.org/2000/svg">
<g clip-path="url(#clip0)">
<path d="M302.631 153.462C302.631 156.63 302.528 159.771 302.323 162.886C301.172 180.85 296.633 198.434 288.947 214.712C288.887 214.851 288.817 214.98 288.758 215.109C288.4 215.864 288.033 216.618 287.656 217.363C285.37 221.967 282.834 226.442 280.059 230.769C267.385 250.632 250.014 267.068 229.48 278.623C208.946 290.179 185.882 296.498 162.326 297.024L163.746 378.691L182.266 368.939L185.573 375.225L163.885 386.645L166.536 538.32L166.566 540.346L152.246 541.547L152.276 541.498L156.784 297.034C137.824 296.762 119.106 292.726 101.719 285.16C84.3307 277.595 68.619 266.651 55.4955 252.963C54.5922 252.03 53.6981 251.067 52.8243 250.113C52.7846 250.074 52.755 250.034 52.7249 250.004C41.7908 238.08 32.9478 224.396 26.5687 209.528C26.7079 209.687 26.8567 209.836 26.9959 209.995C12.5789 176.282 11.6011 138.331 24.2628 103.92C36.9246 69.5087 62.2672 41.2428 95.0974 24.9143C95.5939 24.6661 96.1006 24.4277 96.5971 24.1795C129.072 8.5371 166.239 5.66694 200.731 16.1379C235.222 26.6088 264.521 49.6565 282.819 80.7126C283.694 82.1823 284.538 83.6818 285.352 85.1911C296.719 106.15 302.659 129.62 302.631 153.462Z" fill="#E5E5E5"/>
<path d="M196.902 541.882C220.522 541.882 239.67 522.734 239.67 499.114C239.67 475.495 220.522 456.347 196.902 456.347C173.283 456.347 154.135 475.495 154.135 499.114C154.135 522.734 173.283 541.882 196.902 541.882Z" fill="#403D52"/>
<path d="M247.449 528.512H209.135V541.505H247.449V528.512Z" fill="#403D52"/>
<path d="M247.72 541.505C249.962 541.505 251.78 536.658 251.78 530.678C251.78 524.698 249.962 519.851 247.72 519.851C245.477 519.851 243.66 524.698 243.66 530.678C243.66 536.658 245.477 541.505 247.72 541.505Z" fill="#403D52"/>
<path d="M238.512 527.519H200.197V540.512H238.512V527.519Z" fill="#403D52"/>
<path d="M238.783 540.512C241.025 540.512 242.843 535.664 242.843 529.685C242.843 523.705 241.025 518.858 238.783 518.858C236.54 518.858 234.722 523.705 234.722 529.685C234.722 535.664 236.54 540.512 238.783 540.512Z" fill="#403D52"/>
<path d="M155.417 459.342C151.964 443.877 163.002 428.25 180.072 424.439C197.143 420.627 213.78 430.074 217.233 445.539C220.687 461.005 209.374 466.708 192.303 470.52C175.233 474.332 158.87 474.808 155.417 459.342Z" fill="#78D0D3"/>
<path d="M213.34 496.679C211.103 496.725 208.908 496.066 207.066 494.797C205.224 493.528 203.827 491.712 203.072 489.606C203.03 489.482 203.014 489.352 203.023 489.221C203.032 489.091 203.066 488.964 203.124 488.847C203.182 488.731 203.263 488.627 203.361 488.541C203.459 488.455 203.574 488.39 203.697 488.348C203.821 488.307 203.951 488.29 204.082 488.299C204.212 488.308 204.339 488.342 204.455 488.4C204.572 488.458 204.676 488.539 204.762 488.637C204.848 488.736 204.913 488.85 204.955 488.973C206.458 493.45 211.606 495.791 216.429 494.19C218.823 493.411 220.812 491.716 221.962 489.476C222.456 488.511 222.753 487.458 222.835 486.377C222.918 485.297 222.785 484.211 222.445 483.182C222.403 483.058 222.386 482.928 222.395 482.798C222.404 482.668 222.439 482.541 222.497 482.424C222.555 482.307 222.635 482.203 222.734 482.117C222.832 482.032 222.946 481.966 223.07 481.925C223.193 481.883 223.324 481.866 223.454 481.875C223.584 481.884 223.711 481.919 223.828 481.977C223.945 482.035 224.049 482.115 224.135 482.214C224.22 482.312 224.286 482.426 224.327 482.55C224.752 483.826 224.919 485.174 224.818 486.516C224.717 487.857 224.35 489.165 223.739 490.363C222.352 493.075 219.949 495.128 217.054 496.075C215.856 496.474 214.602 496.678 213.34 496.679V496.679Z" fill="white"/>
<path d="M232.39 502.492C233.538 504.736 233.747 507.345 232.972 509.744C232.196 512.143 230.5 514.135 228.255 515.283C226.011 516.431 223.402 516.64 221.003 515.865C218.604 515.09 216.612 513.393 215.464 511.148L215.455 511.132C213.07 506.455 216.366 503.553 221.043 501.167C225.719 498.781 230.004 497.815 232.39 502.492Z" fill="white"/>
<path d="M385.03 542.267H6.6857C6.42233 542.267 6.16973 542.162 5.9835 541.976C5.79728 541.79 5.69267 541.537 5.69267 541.274C5.69267 541.01 5.79728 540.758 5.9835 540.572C6.16973 540.385 6.42233 540.281 6.6857 540.281H385.03C385.293 540.281 385.546 540.385 385.732 540.572C385.918 540.758 386.023 541.01 386.023 541.274C386.023 541.537 385.918 541.79 385.732 541.976C385.546 542.162 385.293 542.267 385.03 542.267Z" fill="#403D52"/>
<path d="M187.335 555.731C191.318 554.704 191.894 543.585 188.622 530.897C185.35 518.209 179.468 508.756 175.485 509.783C171.501 510.81 170.925 521.929 174.197 534.617C177.47 547.305 183.351 556.758 187.335 555.731Z" fill="#403D52"/>
<path d="M259.147 448.132H242.875C242.72 448.132 242.569 448.085 242.441 447.998C242.313 447.91 242.215 447.786 242.159 447.641C242.103 447.496 242.093 447.338 242.129 447.187C242.164 447.037 242.245 446.9 242.36 446.796L257.156 433.396H243.485C243.282 433.396 243.087 433.315 242.943 433.171C242.799 433.027 242.718 432.832 242.718 432.628C242.718 432.425 242.799 432.229 242.943 432.086C243.087 431.942 243.282 431.861 243.485 431.861H259.147C259.302 431.861 259.453 431.908 259.581 431.995C259.709 432.083 259.807 432.208 259.863 432.352C259.918 432.497 259.929 432.655 259.893 432.806C259.857 432.956 259.777 433.093 259.662 433.197L244.866 446.598H259.147C259.35 446.598 259.545 446.678 259.689 446.822C259.833 446.966 259.914 447.161 259.914 447.365C259.914 447.568 259.833 447.764 259.689 447.907C259.545 448.051 259.35 448.132 259.147 448.132V448.132Z" fill="#78D0D3"/>
<path d="M279.865 424.344H263.594C263.439 424.344 263.287 424.297 263.16 424.21C263.032 424.122 262.933 423.998 262.878 423.853C262.822 423.708 262.811 423.55 262.847 423.399C262.883 423.249 262.964 423.112 263.079 423.008L277.875 409.608H264.204C264 409.608 263.805 409.527 263.661 409.383C263.517 409.239 263.437 409.044 263.437 408.84C263.437 408.637 263.517 408.441 263.661 408.298C263.805 408.154 264 408.073 264.204 408.073H279.865C280.02 408.073 280.172 408.12 280.299 408.207C280.427 408.295 280.525 408.42 280.581 408.564C280.637 408.709 280.648 408.867 280.612 409.018C280.576 409.168 280.495 409.305 280.38 409.409L265.584 422.81H279.865C280.069 422.81 280.264 422.89 280.408 423.034C280.552 423.178 280.633 423.373 280.633 423.577C280.633 423.78 280.552 423.976 280.408 424.12C280.264 424.263 280.069 424.344 279.865 424.344V424.344Z" fill="#78D0D3"/>
<path d="M270.657 398.254H254.386C254.231 398.254 254.079 398.207 253.951 398.12C253.824 398.032 253.725 397.908 253.669 397.763C253.614 397.618 253.603 397.46 253.639 397.309C253.675 397.159 253.755 397.022 253.87 396.918L268.667 383.518H254.996C254.792 383.518 254.597 383.437 254.453 383.293C254.309 383.149 254.228 382.954 254.228 382.75C254.228 382.547 254.309 382.351 254.453 382.208C254.597 382.064 254.792 381.983 254.996 381.983H270.657C270.812 381.983 270.963 382.03 271.091 382.117C271.219 382.205 271.317 382.33 271.373 382.474C271.429 382.619 271.439 382.777 271.404 382.928C271.368 383.078 271.287 383.215 271.172 383.319L256.376 396.72H270.657C270.86 396.72 271.056 396.8 271.2 396.944C271.343 397.088 271.424 397.283 271.424 397.487C271.424 397.69 271.343 397.886 271.2 398.03C271.056 398.173 270.86 398.254 270.657 398.254V398.254Z" fill="#78D0D3"/>
<path d="M383.427 176.14L396.133 165.978C386.263 164.889 382.207 170.272 380.547 174.533C372.836 171.331 364.442 175.527 364.442 175.527L389.863 184.756C388.581 181.331 386.348 178.342 383.427 176.14V176.14Z" fill="#403D52"/>
<path d="M18.9859 10.3044L31.6915 0.142315C21.8211 -0.94666 17.7655 4.43645 16.1057 8.69725C8.39453 5.49527 -3.05176e-05 9.69164 -3.05176e-05 9.69164L25.4216 18.9206C24.1391 15.4951 21.9066 12.5063 18.9859 10.3044V10.3044Z" fill="#403D52"/>
<path d="M415.204 45.0604L427.91 34.8983C418.039 33.8094 413.984 39.1925 412.324 43.4533C404.613 40.2513 396.218 44.4476 396.218 44.4476L421.64 53.6766C420.358 50.2511 418.125 47.2623 415.204 45.0604Z" fill="#403D52"/>
</g>
<defs>
<clipPath id="clip0">
<rect width="427.91" height="555.808" fill="white"/>
</clipPath>
</defs>
</svg>
