<svg width="375" height="235" viewBox="0 0 375 235" fill="none" xmlns="http://www.w3.org/2000/svg">
<g clip-path="url(#clip0)">
<path fill-rule="evenodd" clip-rule="evenodd" d="M114.136 55.5335C97.8399 55.5335 84.5087 67.403 84.5087 81.9125C84.5087 96.4219 97.8399 108.291 114.136 108.291C117.405 108.291 120.082 110.675 120.082 113.586C120.082 116.497 117.405 118.88 114.136 118.88H98.6329C90.6834 118.88 84.1782 124.673 84.1782 131.751C84.1782 138.829 90.6834 144.621 98.6329 144.621C105.509 144.621 111.134 149.63 111.134 155.752C111.134 166.921 121.398 176.059 133.942 176.059H267.83C284.126 176.059 297.457 164.19 297.457 149.68C297.457 135.171 284.126 123.301 267.83 123.301H264.964C261.695 123.301 259.018 120.92 259.018 118.007C259.018 115.096 261.692 112.712 264.964 112.712H284.255C292.205 112.712 298.71 106.92 298.71 99.8418C298.71 92.7725 292.221 86.9864 284.285 86.9715H268.762C261.887 86.9715 256.261 81.9625 256.261 75.8408C256.261 64.6718 245.998 55.5335 233.453 55.5335H114.136Z" fill="url(#paint0_linear)"/>
<path d="M134.132 91.1311H89.9999C81.8675 91.1311 75.2749 97.0062 75.2749 104.253V142.049C75.2749 149.297 81.8675 155.172 89.9999 155.172H134.132C142.264 155.172 148.857 149.297 148.857 142.049V104.253C148.857 97.0062 142.264 91.1311 134.132 91.1311Z" fill="#78D0D3"/>
<path d="M119.129 149.413L115.418 146.105C113.405 144.311 110.142 144.311 108.129 146.105L104.417 149.413C102.404 151.206 102.404 154.114 104.417 155.908L108.129 159.216C110.142 161.009 113.405 161.009 115.418 159.216L119.129 155.908C121.142 154.114 121.142 151.206 119.129 149.413Z" fill="#78D0D3"/>
<path fill-rule="evenodd" clip-rule="evenodd" d="M131.321 137.318V139.81C131.321 141.186 130.078 142.303 128.546 142.303H95.2422C93.71 142.303 92.4666 141.186 92.4666 139.81V137.278C92.4666 129.737 102.064 124.837 111.894 124.837C121.724 124.837 131.321 129.739 131.321 137.278V137.318ZM118.53 106.603C122.29 110.074 122.29 115.7 118.53 119.17C114.77 122.641 108.674 122.641 104.915 119.17C101.155 115.7 101.155 110.074 104.915 106.603C108.674 103.133 114.77 103.133 118.53 106.603Z" fill="#F9F9F9"/>
<path d="M211.107 44.5696H166.974C158.842 44.5696 152.249 50.4447 152.249 57.6919V95.4879C152.249 102.735 158.842 108.61 166.974 108.61H211.107C219.239 108.61 225.832 102.735 225.832 95.4879V57.6919C225.832 50.4447 219.239 44.5696 211.107 44.5696Z" fill="#78D0D3"/>
<path d="M196.104 102.851L192.392 99.5437C190.379 97.7501 187.116 97.7501 185.103 99.5437L181.392 102.851C179.379 104.645 179.379 107.553 181.392 109.347L185.104 112.654C187.116 114.448 190.38 114.448 192.392 112.654L196.104 109.347C198.117 107.553 198.117 104.645 196.104 102.851Z" fill="#78D0D3"/>
<path fill-rule="evenodd" clip-rule="evenodd" d="M208.295 90.7563V93.2489C208.295 94.6245 207.052 95.7411 205.52 95.7411H172.216C170.684 95.7411 169.441 94.6245 169.441 93.2489V90.7164C169.441 83.1749 179.038 78.2754 188.868 78.2754C198.698 78.2754 208.295 83.1776 208.295 90.7164V90.7563ZM195.504 60.0415C199.264 63.5119 199.264 69.1381 195.504 72.6085C191.744 76.0785 185.648 76.0785 181.888 72.6085C178.128 69.1381 178.128 63.5119 181.888 60.0415C185.648 56.5715 191.744 56.5715 195.504 60.0415Z" fill="#F9F9F9"/>
<path d="M211.107 121.735H166.974C158.842 121.735 152.249 127.61 152.249 134.858V172.654C152.249 179.901 158.842 185.776 166.974 185.776H211.107C219.239 185.776 225.832 179.901 225.832 172.654V134.858C225.832 127.61 219.239 121.735 211.107 121.735Z" fill="#78D0D3"/>
<path d="M196.104 180.017L192.392 176.709C190.38 174.916 187.117 174.916 185.104 176.709L181.392 180.017C179.38 181.81 179.38 184.718 181.392 186.511L185.104 189.819C187.117 191.612 190.38 191.612 192.392 189.819L196.104 186.511C198.117 184.718 198.117 181.81 196.104 180.017Z" fill="#78D0D3"/>
<path fill-rule="evenodd" clip-rule="evenodd" d="M208.295 167.922V170.415C208.295 171.79 207.052 172.907 205.52 172.907H172.216C170.684 172.907 169.441 171.79 169.441 170.415V167.883C169.441 160.341 179.038 155.441 188.868 155.441C198.698 155.441 208.295 160.343 208.295 167.883V167.922ZM195.504 137.207C199.264 140.678 199.264 146.304 195.504 149.774C191.744 153.245 185.648 153.245 181.888 149.774C178.128 146.304 178.128 140.678 181.888 137.207C185.648 133.737 191.744 133.737 195.504 137.207Z" fill="#F9F9F9"/>
<path d="M288.081 75.6405H243.948C235.816 75.6405 229.223 81.5155 229.223 88.7628V126.559C229.223 133.806 235.816 139.681 243.948 139.681H288.081C296.213 139.681 302.806 133.806 302.806 126.559V88.7628C302.806 81.5155 296.213 75.6405 288.081 75.6405Z" fill="#78D0D3"/>
<path d="M273.078 133.922L269.366 130.615C267.353 128.821 264.09 128.821 262.078 130.615L258.366 133.922C256.353 135.716 256.353 138.624 258.366 140.418L262.078 143.725C264.09 145.519 267.353 145.519 269.366 143.725L273.078 140.418C275.09 138.624 275.09 135.716 273.078 133.922Z" fill="#78D0D3"/>
<path fill-rule="evenodd" clip-rule="evenodd" d="M285.27 121.827V124.32C285.27 125.695 284.026 126.812 282.494 126.812H249.191C247.658 126.812 246.415 125.695 246.415 124.32V121.788C246.415 114.246 256.012 109.346 265.842 109.346C275.672 109.346 285.27 114.248 285.27 121.788V121.827ZM272.478 91.1128C276.238 94.5827 276.238 100.209 272.478 103.679C268.718 107.15 262.622 107.15 258.862 103.679C255.103 100.209 255.103 94.5827 258.862 91.1128C262.622 87.6424 268.718 87.6424 272.478 91.1128Z" fill="#F9F9F9"/>
<path fill-rule="evenodd" clip-rule="evenodd" d="M101.178 65.8873V53.3013C101.178 51.9974 102.36 50.9414 103.82 50.9414H119.676C121.136 50.9414 122.319 51.9974 122.319 53.3013V65.8873C122.319 66.3079 122.193 66.7209 121.954 67.0835C121.715 67.4462 121.372 67.7453 120.959 67.95L113.031 71.8827C112.639 72.0777 112.197 72.1801 111.748 72.1801C111.298 72.1801 110.856 72.0777 110.464 71.8827L102.536 67.95C102.124 67.745 101.781 67.4458 101.542 67.0832C101.303 66.7206 101.178 66.3077 101.178 65.8873Z" fill="#403D52"/>
<path d="M107.354 64.9124H116.143M107.354 61.3489H116.143H107.354ZM107.354 57.6799H116.143H107.354Z" stroke="#F9F9F9" stroke-width="3.094" stroke-linecap="round" stroke-linejoin="round"/>
<path d="M129.02 168.292C128.648 169.528 129.471 170.798 130.858 171.129C132.244 171.46 133.669 170.727 134.041 169.491C134.412 168.256 133.59 166.986 132.203 166.655C130.816 166.324 129.391 167.057 129.02 168.292Z" fill="#403D52"/>
<path d="M131.88 81.2138C131.509 82.4494 132.332 83.7195 133.718 84.0506C135.104 84.3816 136.529 83.6484 136.901 82.4128C137.272 81.1772 136.45 79.9071 135.063 79.576C133.677 79.245 132.252 79.9782 131.88 81.2138Z" fill="#403D52"/>
<path d="M70.8671 85.8865C70.4956 87.1222 71.3185 88.3922 72.705 88.7233C74.0916 89.0544 75.5168 88.3211 75.8884 87.0855C76.2599 85.8499 75.437 84.5798 74.0505 84.2487C72.6639 83.9176 71.2387 84.6509 70.8671 85.8865Z" fill="#403D52"/>
<path d="M237.222 68.0459C236.851 69.2815 237.674 70.5516 239.06 70.8826C240.447 71.2137 241.872 70.4805 242.244 69.2449C242.615 68.0093 241.792 66.7392 240.406 66.4082C239.019 66.0771 237.594 66.8103 237.222 68.0459Z" fill="#403D52"/>
<path d="M239.129 153.425C238.758 154.661 239.581 155.931 240.967 156.262C242.354 156.593 243.779 155.86 244.15 154.624C244.522 153.389 243.699 152.119 242.312 151.788C240.926 151.457 239.501 152.19 239.129 153.425Z" fill="#403D52"/>
<path fill-rule="evenodd" clip-rule="evenodd" d="M275.081 161.844H273.809C273.502 161.844 273.254 161.621 273.254 161.349V160.216C273.254 159.942 273.504 159.722 273.809 159.722H275.081C275.385 159.722 275.636 159.945 275.636 160.216V161.349C275.636 161.414 275.621 161.479 275.594 161.539C275.566 161.599 275.525 161.653 275.473 161.699C275.422 161.745 275.361 161.782 275.293 161.806C275.226 161.831 275.154 161.844 275.081 161.844ZM270.673 161.844H269.401C269.254 161.843 269.113 161.791 269.009 161.698C268.905 161.606 268.847 161.48 268.846 161.349V160.216C268.846 159.942 269.096 159.722 269.401 159.722H270.673C270.977 159.722 271.227 159.945 271.227 160.216V161.349C271.227 161.48 271.168 161.606 271.064 161.698C270.96 161.791 270.82 161.843 270.673 161.844ZM266.261 161.844H264.99C264.843 161.843 264.702 161.791 264.598 161.698C264.494 161.606 264.436 161.48 264.435 161.349V160.216C264.435 159.942 264.685 159.722 264.99 159.722H266.261C266.566 159.722 266.817 159.945 266.817 160.216V161.349C266.817 161.414 266.802 161.479 266.774 161.539C266.747 161.599 266.706 161.653 266.654 161.699C266.603 161.745 266.541 161.782 266.474 161.806C266.406 161.831 266.334 161.844 266.261 161.844ZM261.853 161.844H260.582C260.435 161.843 260.294 161.791 260.19 161.698C260.086 161.606 260.028 161.48 260.027 161.349V160.216C260.027 159.942 260.277 159.722 260.582 159.722H261.853C262.161 159.722 262.411 159.945 262.411 160.216V161.349C262.409 161.481 262.35 161.606 262.245 161.698C262.141 161.791 262 161.843 261.853 161.844ZM257.445 161.844H256.173C256.026 161.844 255.884 161.792 255.78 161.699C255.675 161.607 255.616 161.481 255.616 161.349V160.216C255.616 159.942 255.866 159.722 256.173 159.722H257.445C257.749 159.722 258 159.945 258 160.216V161.349C257.999 161.48 257.94 161.606 257.836 161.698C257.733 161.791 257.592 161.843 257.445 161.844ZM270.511 157.56H269.24C269.093 157.56 268.952 157.508 268.848 157.415C268.744 157.322 268.685 157.197 268.684 157.066V155.93C268.684 155.659 268.935 155.436 269.24 155.436H270.511C270.818 155.436 271.066 155.659 271.066 155.93V157.063C271.066 157.128 271.052 157.193 271.025 157.253C270.997 157.314 270.956 157.369 270.904 157.415C270.853 157.461 270.791 157.498 270.724 157.523C270.656 157.548 270.584 157.561 270.511 157.56ZM266.102 157.56H264.831C264.684 157.56 264.543 157.507 264.439 157.415C264.335 157.322 264.277 157.197 264.276 157.066V155.93C264.276 155.659 264.526 155.436 264.831 155.436H266.102C266.407 155.436 266.658 155.659 266.658 155.93V157.063C266.658 157.128 266.644 157.193 266.616 157.253C266.589 157.314 266.548 157.369 266.496 157.415C266.445 157.461 266.383 157.498 266.316 157.523C266.248 157.548 266.176 157.561 266.102 157.56ZM261.694 157.56H260.423C260.116 157.56 259.865 157.337 259.865 157.066V155.93C259.865 155.659 260.116 155.436 260.423 155.436H261.694C261.999 155.436 262.249 155.659 262.249 155.93V157.063C262.249 157.195 262.191 157.321 262.087 157.414C261.983 157.507 261.842 157.56 261.694 157.56ZM266.261 166.445H264.99C264.843 166.445 264.702 166.393 264.598 166.3C264.494 166.207 264.436 166.082 264.435 165.951V164.818C264.435 164.544 264.685 164.323 264.99 164.323H266.261C266.566 164.323 266.817 164.546 266.817 164.818V165.951C266.817 166.016 266.802 166.08 266.775 166.14C266.747 166.2 266.706 166.255 266.654 166.301C266.603 166.347 266.541 166.383 266.474 166.408C266.407 166.433 266.334 166.446 266.261 166.445ZM261.853 166.445H260.582C260.435 166.445 260.294 166.393 260.19 166.3C260.086 166.207 260.027 166.082 260.027 165.951V164.818C260.027 164.544 260.277 164.323 260.582 164.323H261.853C262.161 164.323 262.411 164.546 262.411 164.818V165.951C262.409 166.082 262.35 166.207 262.246 166.3C262.141 166.392 262 166.445 261.853 166.445Z" fill="#403D52"/>
<path d="M140.936 62.0705L132.256 69.8051C131.94 70.0867 131.94 70.5434 132.256 70.825C132.572 71.1067 133.085 71.1067 133.401 70.825L142.081 63.0904C142.397 62.8088 142.397 62.3521 142.081 62.0705C141.765 61.7888 141.252 61.7888 140.936 62.0705Z" fill="#403D52"/>
<path d="M140.086 67.6084L137.583 69.8391C137.267 70.1207 137.267 70.5773 137.583 70.859C137.899 71.1406 138.411 71.1406 138.727 70.859L141.231 68.6283C141.547 68.3467 141.547 67.89 141.231 67.6084C140.915 67.3267 140.402 67.3268 140.086 67.6084Z" fill="#403D52"/>
<path d="M100.988 177.052L109.667 169.318C109.983 169.036 109.983 168.58 109.667 168.298C109.351 168.016 108.838 168.016 108.522 168.298L99.843 176.032C99.5269 176.314 99.5269 176.771 99.843 177.052C100.159 177.334 100.671 177.334 100.988 177.052Z" fill="#403D52"/>
<path d="M101.837 171.515L104.34 169.284C104.656 169.002 104.656 168.546 104.34 168.264C104.024 167.983 103.512 167.983 103.196 168.264L100.692 170.495C100.376 170.776 100.376 171.233 100.692 171.515C101.008 171.796 101.521 171.796 101.837 171.515Z" fill="#403D52"/>
<path d="M265.436 68.3108L274.115 60.5763C274.431 60.2946 274.431 59.838 274.115 59.5563C273.799 59.2747 273.287 59.2747 272.97 59.5563L264.291 67.2908C263.975 67.5725 263.975 68.0291 264.291 68.3108C264.607 68.5924 265.12 68.5924 265.436 68.3108Z" fill="#403D52"/>
<path d="M266.285 62.773L268.788 60.5423C269.104 60.2606 269.104 59.804 268.788 59.5223C268.472 59.2407 267.96 59.2407 267.644 59.5223L265.141 61.7531C264.825 62.0347 264.825 62.4914 265.141 62.773C265.457 63.0547 265.969 63.0546 266.285 62.773Z" fill="#403D52"/>
</g>
<defs>
<linearGradient id="paint0_linear" x1="196.018" y1="243.633" x2="193.93" y2="-75.6076" gradientUnits="userSpaceOnUse">
<stop stop-color="white"/>
<stop offset="1" stop-color="#EEEEEE"/>
</linearGradient>
<clipPath id="clip0">
<rect width="395" height="234.668" fill="white" transform="translate(-11)"/>
</clipPath>
</defs>
</svg>
