<svg width="375" height="264" viewBox="0 0 375 264" fill="none" xmlns="http://www.w3.org/2000/svg">
<path d="M187.281 227.174C248.727 227.174 298.539 224.205 298.539 220.543C298.539 216.88 248.727 213.912 187.281 213.912C125.834 213.912 76.0221 216.88 76.0221 220.543C76.0221 224.205 125.834 227.174 187.281 227.174Z" fill="url(#paint0_linear)"/>
<path fill-rule="evenodd" clip-rule="evenodd" d="M117.709 44.328C108.641 44.328 101.223 51.7189 101.223 60.754C101.223 69.789 108.641 77.1799 117.709 77.1799C119.528 77.1799 121.018 78.6643 121.018 80.4769C121.018 82.2895 119.528 83.7739 117.709 83.7739H109.082C104.659 83.7739 101.039 87.3807 101.039 91.788C101.039 96.1954 104.659 99.8022 109.082 99.8022C112.908 99.8022 116.039 102.921 116.039 106.733C116.039 113.688 121.75 119.379 128.731 119.379H203.233C212.302 119.379 219.72 111.988 219.72 102.953C219.72 93.9175 212.302 86.5266 203.233 86.5266H201.639C199.82 86.5266 198.33 85.044 198.33 83.2296C198.33 81.417 199.818 79.9327 201.639 79.9327H212.373C216.797 79.9327 220.417 76.3258 220.417 71.9185C220.417 67.5164 216.806 63.9135 212.39 63.9043H203.752C199.926 63.9043 196.796 60.7851 196.796 56.9733C196.796 50.0182 191.085 44.328 184.104 44.328H117.709Z" fill="url(#paint1_linear)"/>
<path d="M231.758 37.066C231.534 36.9858 231.308 36.913 231.08 36.8479C231.004 36.826 230.929 36.8032 230.854 36.7838C230.691 36.7428 230.528 36.7037 230.365 36.6667C230.287 36.6491 230.209 36.6346 230.129 36.6197C229.966 36.5893 229.801 36.5617 229.636 36.5372C229.54 36.5237 229.443 36.5114 229.347 36.5003C229.277 36.492 229.206 36.4841 229.135 36.4771C229.024 36.4669 228.913 36.4586 228.802 36.452C228.743 36.4485 228.685 36.4428 228.626 36.4406C228.455 36.4323 228.282 36.4279 228.109 36.4279H148.624C148.078 36.4263 147.532 36.4677 146.992 36.5517C146.816 36.5789 146.64 36.6104 146.465 36.646C141.929 37.5747 138.437 41.3773 137.962 46.0725C137.925 46.4375 137.906 46.8042 137.906 47.171V210.019C137.906 214.669 140.853 218.627 144.977 220.124C144.996 220.131 145.014 220.136 145.033 220.142C145.237 220.214 145.445 220.281 145.654 220.34C145.73 220.362 145.805 220.386 145.882 220.405C145.963 220.425 146.043 220.445 146.123 220.465C146.205 220.484 146.288 220.504 146.37 220.522C146.448 220.539 146.527 220.554 146.606 220.569C146.769 220.6 146.933 220.627 147.098 220.652C147.193 220.666 147.29 220.677 147.387 220.688C147.457 220.696 147.528 220.705 147.599 220.711C147.709 220.722 147.821 220.73 147.932 220.737C147.991 220.74 148.05 220.746 148.108 220.748C148.279 220.756 148.452 220.761 148.625 220.761H228.111C228.481 220.761 228.847 220.742 229.208 220.706C234.251 220.192 238.262 216.172 238.775 211.115C238.812 210.754 238.83 210.387 238.83 210.016V47.171C238.828 42.521 235.881 38.5622 231.758 37.0665V37.066Z" fill="#F9F9F9" stroke="#403D52" stroke-width="4"/>
<path d="M188.367 212.01C191.78 212.01 194.546 209.243 194.546 205.831C194.546 202.419 191.78 199.652 188.367 199.652C184.955 199.652 182.188 202.419 182.188 205.831C182.188 209.243 184.955 212.01 188.367 212.01Z" fill="#F9F9F9" stroke="#403D52" stroke-width="4"/>
<path d="M198.151 45.1803H179.099C178.814 45.1803 178.584 45.4108 178.584 45.6951C178.584 45.9794 178.814 46.2098 179.099 46.2098H198.151C198.435 46.2098 198.665 45.9794 198.665 45.6951C198.665 45.4108 198.435 45.1803 198.151 45.1803Z" fill="#F9F9F9" stroke="#403D52" stroke-width="2.346"/>
<path d="M222.841 52.9038H154.408C149.56 52.9038 145.63 56.8338 145.63 61.6816V180.576C145.63 185.424 149.56 189.354 154.408 189.354H222.841C227.689 189.354 231.619 185.424 231.619 180.576V61.6816C231.619 56.8338 227.689 52.9038 222.841 52.9038Z" fill="#F9F9F9" stroke="#403D52" stroke-width="4"/>
<path fill-rule="evenodd" clip-rule="evenodd" d="M173.894 101.075V103.204C173.895 103.769 174.12 104.311 174.519 104.71C174.919 105.11 175.461 105.334 176.026 105.334H201.607C202.172 105.334 202.714 105.11 203.114 104.71C203.513 104.311 203.738 103.769 203.739 103.204V101.041C203.739 94.5976 196.367 90.4115 188.817 90.4115C181.266 90.4115 173.894 94.5998 173.894 101.041V101.075ZM183.541 71.091C180.627 74.0048 180.627 78.729 183.541 81.6428C186.454 84.5566 191.179 84.5566 194.092 81.6428C197.006 78.729 197.006 74.0048 194.092 71.091C191.179 68.1772 186.454 68.1772 183.541 71.091Z" fill="#78D0D3"/>
<path d="M219.758 116.745H157.875C154.845 116.745 152.389 119.201 152.389 122.231C152.389 125.261 154.845 127.718 157.875 127.718H219.758C222.788 127.718 225.244 125.261 225.244 122.231C225.244 119.201 222.788 116.745 219.758 116.745Z" fill="#F9F9F9" stroke="#403D52" stroke-width="4"/>
<path d="M219.758 133.423H157.875C154.845 133.423 152.389 135.879 152.389 138.909C152.389 141.939 154.845 144.395 157.875 144.395H219.758C222.788 144.395 225.244 141.939 225.244 138.909C225.244 135.879 222.788 133.423 219.758 133.423Z" fill="#F9F9F9" stroke="#403D52" stroke-width="4"/>
<path d="M219.758 150.101H157.875C154.845 150.101 152.389 152.557 152.389 155.587C152.389 158.617 154.845 161.073 157.875 161.073H219.758C222.788 161.073 225.244 158.617 225.244 155.587C225.244 152.557 222.788 150.101 219.758 150.101Z" fill="#78D0D3" stroke="#78D0D3" stroke-width="4"/>
<path fill-rule="evenodd" clip-rule="evenodd" d="M129.036 135.533H127.809C127.512 135.533 127.274 135.292 127.274 134.998V133.771C127.274 133.474 127.515 133.235 127.809 133.235H129.036C129.33 133.235 129.571 133.477 129.571 133.771V134.998C129.574 135.292 129.332 135.533 129.036 135.533ZM124.782 135.533H123.556C123.262 135.533 123.02 135.292 123.02 134.998V133.771C123.02 133.474 123.262 133.235 123.556 133.235H124.782C125.076 133.235 125.318 133.477 125.318 133.771V134.998C125.318 135.292 125.076 135.533 124.782 135.533ZM120.527 135.533H119.3C119.006 135.533 118.765 135.292 118.765 134.998V133.771C118.765 133.474 119.006 133.235 119.3 133.235H120.527C120.821 133.235 121.062 133.477 121.062 133.771V134.998C121.065 135.292 120.823 135.533 120.527 135.533ZM116.274 135.533H115.047C114.753 135.533 114.511 135.292 114.511 134.998V133.771C114.511 133.474 114.753 133.235 115.047 133.235H116.274C116.57 133.235 116.811 133.477 116.811 133.771V134.998C116.81 135.14 116.753 135.275 116.652 135.375C116.552 135.476 116.416 135.532 116.274 135.533ZM112.02 135.533H110.794C110.497 135.533 110.256 135.292 110.256 134.998V133.771C110.256 133.474 110.497 133.235 110.794 133.235H112.02C112.314 133.235 112.556 133.477 112.556 133.771V134.998C112.556 135.292 112.314 135.533 112.02 135.533ZM124.627 130.895H123.4C123.106 130.895 122.864 130.654 122.864 130.36V129.131C122.864 128.836 123.106 128.595 123.4 128.595H124.627C124.923 128.595 125.162 128.836 125.162 129.131V130.357C125.163 130.428 125.149 130.498 125.122 130.563C125.096 130.628 125.056 130.688 125.006 130.738C124.957 130.788 124.897 130.827 124.832 130.855C124.767 130.882 124.697 130.895 124.627 130.895ZM120.373 130.895H119.147C118.853 130.895 118.611 130.654 118.611 130.36V129.131C118.611 128.836 118.853 128.595 119.147 128.595H120.373C120.667 128.595 120.909 128.836 120.909 129.131V130.357C120.909 130.428 120.896 130.498 120.869 130.563C120.842 130.628 120.803 130.688 120.753 130.738C120.703 130.788 120.644 130.827 120.579 130.855C120.514 130.882 120.444 130.895 120.373 130.895ZM116.12 130.895H114.893C114.597 130.895 114.356 130.654 114.356 130.36V129.131C114.356 128.836 114.597 128.595 114.893 128.595H116.12C116.415 128.595 116.655 128.836 116.655 129.131V130.357C116.655 130.654 116.415 130.895 116.12 130.895ZM120.527 140.515H119.3C119.006 140.515 118.765 140.274 118.765 139.98V138.753C118.765 138.456 119.006 138.218 119.3 138.218H120.527C120.821 138.218 121.062 138.459 121.062 138.753V139.98C121.065 140.274 120.823 140.515 120.527 140.515ZM116.274 140.515H115.047C114.753 140.515 114.511 140.274 114.511 139.98V138.753C114.511 138.456 114.753 138.218 115.047 138.218H116.274C116.57 138.218 116.811 138.459 116.811 138.753V139.98C116.81 140.122 116.753 140.258 116.652 140.358C116.552 140.458 116.416 140.514 116.274 140.515Z" fill="#403D52"/>
<path d="M253.591 50.4255L263.774 40.2425C264.145 39.8718 264.145 39.2707 263.774 38.9L263.774 38.8996C263.403 38.5289 262.802 38.5289 262.431 38.8997L252.248 49.0826C251.878 49.4534 251.878 50.0544 252.248 50.4252L252.249 50.4255C252.619 50.7962 253.22 50.7962 253.591 50.4255Z" fill="#403D52"/>
<path d="M254.589 43.1345L257.526 40.1977C257.896 39.827 257.896 39.2259 257.526 38.8552L257.525 38.8549C257.154 38.4841 256.553 38.4841 256.183 38.8549L253.246 41.7917C252.875 42.1624 252.875 42.7635 253.246 43.1342L253.246 43.1345C253.617 43.5053 254.218 43.5052 254.589 43.1345Z" fill="#403D52"/>
<path d="M114.383 62.1555L119.721 56.8182C119.915 56.6239 119.915 56.3087 119.721 56.1144C119.526 55.92 119.211 55.92 119.017 56.1144L113.68 61.4516C113.485 61.646 113.485 61.9611 113.68 62.1555C113.874 62.3499 114.189 62.3499 114.383 62.1555Z" fill="#403D52"/>
<path d="M114.906 58.3344L116.445 56.7951C116.64 56.6007 116.64 56.2856 116.445 56.0912C116.251 55.8969 115.936 55.8969 115.741 56.0912L114.202 57.6305C114.008 57.8249 114.008 58.14 114.202 58.3344C114.396 58.5287 114.712 58.5287 114.906 58.3344Z" fill="#403D52"/>
<path d="M217.783 177.751C217.783 179.205 218.962 180.384 220.417 180.384C221.871 180.384 223.05 179.205 223.05 177.751C223.05 176.296 221.871 175.117 220.417 175.117C218.962 175.117 217.783 176.296 217.783 177.751Z" fill="#403D52"/>
<path d="M119.911 64.517C119.911 65.9714 121.09 67.1503 122.544 67.1503C123.999 67.1503 125.178 65.9714 125.178 64.517C125.178 63.0627 123.999 61.8837 122.544 61.8837C121.09 61.8837 119.911 63.0627 119.911 64.517Z" fill="#403D52"/>
<path d="M95.0252 170.192C96.1769 169.883 96.8603 168.699 96.5518 167.547C96.2432 166.396 95.0594 165.712 93.9078 166.021C92.7561 166.329 92.0727 167.513 92.3812 168.665C92.6898 169.817 93.8736 170.5 95.0252 170.192Z" fill="#403D52"/>
<path d="M213.973 91.6837C214.238 93.7341 214.949 96.206 216.098 97.0456C217.403 97.9984 217.806 99.01 217.806 99.01L219.131 98.6019L220.716 98.1134C220.716 98.1134 220.718 97.9514 220.708 97.6824C220.696 97.3274 220.668 96.9731 220.623 96.6207C220.623 96.6207 220.321 95.9712 220.745 95.34C221.168 94.7102 221.362 93.6293 221.064 92.8739C220.768 92.1212 220.706 90.4157 220.425 90.4021C219.746 90.3643 220.212 92.794 219.836 93.1364C219.499 93.4489 219.21 93.2487 219.159 93.2057L219.148 93.1974C217.503 91.9681 216.286 87.1122 215.167 87.4721C214.75 87.6055 213.858 90.8107 213.973 91.6837ZM280.863 142.142C280.863 142.142 279.459 144.573 280.088 145.975C280.715 147.378 282.893 149.248 283.455 149.982C284.014 150.714 285.914 152.649 286.679 151.404C287.444 150.162 286.093 146.858 285.157 145.613C284.221 144.364 284.132 142.224 284.132 142.224L280.863 142.142Z" fill="#F8AE9D"/>
<path d="M279.964 145.57C279.964 145.57 280.071 148.249 280.198 148.964C280.327 149.681 280.453 149.462 280.943 148.981C281.433 148.5 281.428 147.098 281.611 147.006C281.795 146.913 279.964 145.57 279.964 145.57Z" fill="#F8AE9D"/>
<path d="M255.392 91.3901C255.392 91.3901 239.007 109.053 233.905 111.821L221.053 96.6502C221.053 96.6502 218.641 96.8192 217.131 98.8539C217.131 98.8539 222.117 120.25 231.215 123.213C240.312 126.176 258.86 105.343 258.86 105.343L255.392 91.3901ZM240.115 220.861H256.941C257.75 219.909 257.452 216.39 257.331 215.24C257.305 215.007 257.288 214.874 257.288 214.874C257.288 214.874 251.542 210.437 250.753 213.835C250.729 213.941 250.701 214.045 250.668 214.149C249.675 217.327 245.214 218.77 242.64 219.173C240.964 219.434 240.344 220.274 240.115 220.861Z" fill="#31446C"/>
<path d="M251.443 220.861H268.27C269.079 219.908 268.781 216.389 268.659 215.239C268.634 215.007 268.617 214.873 268.617 214.873C268.617 214.873 262.871 210.436 262.082 213.834C262.058 213.94 262.03 214.045 261.997 214.148C261.003 217.326 256.543 218.77 253.968 219.173C252.292 219.434 251.673 220.274 251.443 220.861Z" fill="#31446C"/>
<path d="M244.711 145.204C244.711 145.204 245.516 153.911 246.461 164.375C247.746 178.591 249.292 196.054 249.445 199.362C249.71 205.107 250.769 214.295 250.769 214.295C250.769 214.295 253.284 216.478 258.318 215.557C258.318 215.557 262.806 202.44 264.087 188.561L264.145 187.875C265.338 173.747 267.19 143.996 267.19 143.996L244.711 145.204Z" fill="#78D0D3"/>
<path d="M249.274 145.8C249.274 145.8 250.791 154.42 252.593 164.782C255.041 178.859 258.015 196.151 258.437 199.436C259.167 205.139 260.983 214.223 260.983 214.223C260.983 214.223 263.718 216.248 268.769 215.035C268.769 215.035 272.285 201.712 272.477 187.819L272.481 187.133C272.563 172.998 272.062 143.271 272.062 143.271L249.274 145.8Z" fill="#78D0D3"/>
<path d="M251.881 94.5709C257.662 96.3967 267.204 91.2494 267.204 91.2494C267.204 91.2494 262.337 87.4679 262.615 79.1474L258.145 82.7511L255.108 85.1975C255.108 85.1975 255.12 86.641 255.452 89.1695C255.54 89.8339 255.701 90.8732 255.202 91.4056C253.266 93.4719 251.881 94.5709 251.881 94.5709Z" fill="#F8AE9D"/>
<path d="M253.34 85.0619C253.34 85.0619 262.892 86.6494 263.789 80.6853C264.686 74.7213 266.522 70.9095 260.461 69.6442C254.401 68.3793 252.87 70.475 252.087 72.393C251.304 74.3109 250.88 84.4953 253.34 85.0619Z" fill="#F8AE9D"/>
<path d="M243.809 148.289C243.984 148.433 244.186 148.521 244.418 148.521C246.59 148.492 252.922 149.699 258.28 149.148C262.797 148.714 266.797 147.376 271.089 145.452C271.66 145.196 272.971 144.495 272.943 143.859C272.923 143.16 272.855 142.149 272.766 140.874C272.462 136.441 271.934 128.82 272.45 120.025C272.542 118.387 272.592 116.764 272.598 115.164C272.642 103.244 270.28 92.7613 265.529 89.2138C265.123 88.9237 262.632 90.1407 260.344 91.2682C258.23 92.311 256.572 92.4212 254.574 92.017L252.122 93.7866C249.689 96.0447 247.025 99.116 245.866 103.777C244.881 107.745 244.302 114.898 243.984 122.311C243.84 125.671 243.723 129.06 243.693 132.273V132.387C243.665 132.706 243.665 133.054 243.665 133.372C243.549 141.629 243.665 148.173 243.809 148.289Z" fill="#31446C"/>
<path d="M282.296 143.38C280.483 143.626 278.548 143.372 278.548 143.372C278.548 143.372 274.176 126.623 273.577 125.083C272.979 123.542 258.884 104.891 258.884 104.891L266.096 89.488C266.096 89.488 280.874 117.757 282.312 121.693C284.69 128.196 284.821 142.475 284.821 142.475C284.821 142.475 283.721 143.188 282.296 143.38ZM264.864 78.5486C264.344 79.6239 262.835 79.7828 262.974 78.5969C263.132 77.2473 263.13 75.4816 262.033 75.8099C260.936 76.1382 260.88 77.0173 260.429 76.5047C259.979 75.9921 259.971 73.8301 256.704 73.6778C253.436 73.5277 252.109 74.6648 250.591 73.996C249.682 73.5961 249.288 72.6117 249.118 71.8862C249.071 71.6808 249.22 71.3938 249.357 71.554C249.487 71.7054 249.813 71.6962 249.72 71.5197C249.145 70.4278 248.284 68.0442 250.477 66.2684C253.412 63.8918 256.403 65.4477 258.101 65.5495C261.843 65.776 264.26 66.0002 265.481 68.4585C266.493 70.498 266.32 75.5365 264.864 78.5486Z" fill="#31446C"/>
<path d="M95.5786 195.333C93.1462 197.809 88.5974 197.287 88.5974 197.287C88.5974 197.287 87.9956 192.751 90.4302 190.277C92.8626 187.801 97.4093 188.321 97.4093 188.321C97.4093 188.321 98.011 192.857 95.5786 195.333Z" fill="url(#paint2_linear)"/>
<path d="M283.397 205.401C284.973 205.401 286.25 204.124 286.25 202.548C286.25 200.973 284.973 199.695 283.397 199.695C281.822 199.695 280.545 200.973 280.545 202.548C280.545 204.124 281.822 205.401 283.397 205.401Z" fill="#403D52"/>
<path d="M151.301 118.023L144.495 116.157L149.769 120.056C146.243 124.7 142.579 129.719 142.245 135.639C142.128 137.571 141.894 139.404 141.504 141.114L133.468 142.857L131.373 143.308L134.058 143.531L140.674 144.088C140.212 145.452 139.666 146.733 139.031 147.919C136.063 153.5 130.855 169.706 125.18 170.615H125.175C125.002 170.269 116.876 154.29 124.378 129.852C125.348 126.712 126.639 123.681 128.232 120.807C128.282 120.713 128.333 120.624 128.383 120.535C137.494 104.261 154.013 96.3691 156.274 104.668C157.516 109.212 154.72 113.484 151.301 118.023Z" fill="#78D0D3"/>
<path d="M139.032 147.93C134.559 162.299 130.856 169.718 125.181 170.625H125.175C124.947 170.625 112.516 170.447 123.332 131.395C124.24 128.126 126.629 123.692 128.233 120.818C128.283 120.724 128.333 120.635 128.383 120.545C127.893 124.661 127.67 130.793 129.475 136.346C129.475 136.346 130.717 139.47 133.468 142.868L131.374 143.319L134.058 143.542C135.389 145.073 137.038 146.632 139.032 147.93Z" fill="#78D0D3"/>
<path d="M125.091 189.389C124.696 133.551 144.523 106.812 155.033 102.635" stroke="#78D0D3" stroke-width="2.5" stroke-miterlimit="10"/>
<path d="M125.047 136.441L121.31 139.81L125.136 138.652C125.425 150.37 123.309 161.508 117.623 162.533C110.082 163.909 105.86 143.792 105.599 129.624L110.99 131.027L105.649 127.496C105.677 126.616 105.727 124.06 105.794 123.28C106.54 114.949 109.341 106.449 114.37 101.159C117.5 106.333 120.173 112.298 122.067 118.201C123.654 123.136 124.724 129.785 125.047 136.441Z" fill="#78D0D3"/>
<path d="M105.788 123.28L122.067 118.201C120.179 112.298 117.495 106.338 114.371 101.159C109.347 106.449 106.535 114.949 105.788 123.28Z" fill="#78D0D3"/>
<path d="M115.29 104.005C117.517 127.513 118.458 172.235 117.105 188.375" stroke="#78D0D3" stroke-width="2.5" stroke-miterlimit="10"/>
<path d="M110.216 170.67C105.916 172.43 98.6924 163.079 93.1342 150.826C92.8124 150.107 92.4968 149.385 92.1875 148.66C91.5822 147.236 91.0103 145.799 90.4723 144.349L93.9418 143.787L89.4251 141.414C86.9915 134.179 85.393 126.672 85.404 120.256L102.04 123.586C105.994 130.069 109.219 139.086 111.129 147.512L109.419 152.441L111.814 150.793C113.713 160.801 113.535 169.317 110.216 170.67Z" fill="#78D0D3"/>
<path d="M90.3221 123.966C102.53 149.534 114.721 177.91 113.736 189.989" stroke="#78D0D3" stroke-width="2.5" stroke-miterlimit="10"/>
<path d="M113.021 140.118C113.021 140.118 108.087 137.729 105.508 131.713L95.6728 130.447L104.722 129.438C104.18 127.507 103.881 125.298 104.006 122.748C104.02 122.459 104.018 122.179 104.033 121.891C101.481 121.939 98.1819 121.908 97.8699 121.897L104.044 118.732C103.443 102.656 94.623 92.8044 89.8659 104.542C88.895 106.95 87.6631 109.631 86.55 112.844L88.9929 119.895L85.4146 116.256C85.0955 117.302 85.0442 117.585 84.9867 118.244C84.4855 123.985 87.3725 129.493 92.192 132.675C98.2328 136.644 107.483 141.786 113.021 140.118Z" fill="#78D0D3"/>
<path d="M107.215 215.003L109.234 183.627H128.182L130.365 214.973C130.597 218.359 127.913 221.236 124.518 221.236H113.061C109.675 221.236 106.997 218.379 107.215 215.003Z" fill="#F9F9F9" stroke="#403D52" stroke-width="4"/>
<path d="M106.181 184.651V180.849H131.426V184.651H106.181Z" fill="#403D52" stroke="#403D52" stroke-width="4"/>
<defs>
<linearGradient id="paint0_linear" x1="192.025" y1="234.609" x2="192.001" y2="199.48" gradientUnits="userSpaceOnUse">
<stop stop-color="white"/>
<stop offset="1" stop-color="#EEEEEE"/>
</linearGradient>
<linearGradient id="paint1_linear" x1="163.273" y1="161.456" x2="161.818" y2="-37.3306" gradientUnits="userSpaceOnUse">
<stop stop-color="white"/>
<stop offset="1" stop-color="#EEEEEE"/>
</linearGradient>
<linearGradient id="paint2_linear" x1="85.8735" y1="203.789" x2="103.459" y2="176.223" gradientUnits="userSpaceOnUse">
<stop stop-color="white"/>
<stop offset="1" stop-color="#EEEEEE"/>
</linearGradient>
</defs>
</svg>
