<svg width="139" height="206" viewBox="0 0 139 206" fill="none" xmlns="http://www.w3.org/2000/svg">
<g filter="url(#filter0_d)">
<path d="M69 188C101.033 188 127 164.271 127 135C127 105.729 101.033 82 69 82C36.9675 82 11 105.729 11 135C11 164.271 36.9675 188 69 188Z" fill="#F9F9F9"/>
</g>
<path d="M28 37.0264C28 20.1933 39.9828 5.74441 56.5255 2.6305L64.0255 1.21874C68.3042 0.413316 72.6958 0.413315 76.9745 1.21873L84.4745 2.6305C101.017 5.74441 113 20.1933 113 37.0264V42.946C113 60.2327 100.379 74.9302 83.2914 77.5437L75.7914 78.6907C72.2842 79.2271 68.7158 79.2271 65.2086 78.6907L57.7086 77.5437C40.6206 74.9302 28 60.2327 28 42.946V37.0264Z" fill="#F9F9F9"/>
<g filter="url(#filter1_d)">
<path d="M56.5 45.3182C60.6421 45.3182 64 42.1129 64 38.1591C64 34.2052 60.6421 31 56.5 31C52.3579 31 49 34.2052 49 38.1591C49 42.1129 52.3579 45.3182 56.5 45.3182Z" fill="#403D52"/>
</g>
<g filter="url(#filter2_d)">
<path d="M83.5 45.3182C87.6421 45.3182 91 42.1129 91 38.1591C91 34.2052 87.6421 31 83.5 31C79.3579 31 76 34.2052 76 38.1591C76 42.1129 79.3579 45.3182 83.5 45.3182Z" fill="#403D52"/>
</g>
<g filter="url(#filter3_d)">
<path d="M47.5 202C54.4036 202 60 195.732 60 188C60 180.268 54.4036 174 47.5 174C40.5964 174 35 180.268 35 188C35 195.732 40.5964 202 47.5 202Z" fill="#403D52"/>
</g>
<g filter="url(#filter4_d)">
<path d="M93.5 202C100.404 202 106 195.732 106 188C106 180.268 100.404 174 93.5 174C86.5964 174 81 180.268 81 188C81 195.732 86.5964 202 93.5 202Z" fill="#403D52"/>
</g>
<g filter="url(#filter5_d)">
<path d="M122.5 128C129.404 128 135 121.732 135 114C135 106.268 129.404 100 122.5 100C115.596 100 110 106.268 110 114C110 121.732 115.596 128 122.5 128Z" fill="#403D52"/>
</g>
<g filter="url(#filter6_d)">
<path d="M16.5 128C23.4036 128 29 121.732 29 114C29 106.268 23.4036 100 16.5 100C9.59644 100 4 106.268 4 114C4 121.732 9.59644 128 16.5 128Z" fill="#403D52"/>
</g>
<g filter="url(#filter7_d)">
<path d="M29.5 55C34.7467 55 39 48.2843 39 40C39 31.7157 34.7467 25 29.5 25C24.2533 25 20 31.7157 20 40C20 48.2843 24.2533 55 29.5 55Z" fill="#403D52"/>
</g>
<g filter="url(#filter8_d)">
<path d="M109.5 55C114.747 55 119 48.2843 119 40C119 31.7157 114.747 25 109.5 25C104.253 25 100 31.7157 100 40C100 48.2843 104.253 55 109.5 55Z" fill="#403D52"/>
</g>
<g filter="url(#filter9_d)">
<path d="M99 123H40V148H99V123Z" fill="#403D52"/>
</g>
<path d="M56.8906 127.891L54.7812 139.812H52.7188L50.7344 131.641L48.7344 139.812H46.6719L44.5781 127.891H46.5156L47.8438 135.828L49.7969 127.891H51.6719L53.625 135.828L54.9531 127.891H56.8906ZM58.7656 134.578H61.75C61.75 134.089 61.6615 133.672 61.4844 133.328C61.3802 133.151 61.2344 133.01 61.0469 132.906C60.8698 132.792 60.6719 132.734 60.4531 132.734C60.0052 132.734 59.6042 132.958 59.25 133.406C59.0104 133.708 58.849 134.099 58.7656 134.578ZM58.8125 136.266C58.8438 136.411 58.8854 136.562 58.9375 136.719C59.0208 136.958 59.151 137.198 59.3281 137.438C59.5156 137.677 59.7448 137.885 60.0156 138.062C60.1094 138.115 60.25 138.167 60.4375 138.219C60.625 138.271 60.8542 138.297 61.125 138.297C61.4375 138.297 61.7917 138.245 62.1875 138.141C62.5833 138.026 63.026 137.823 63.5156 137.531V139.281C62.9427 139.615 62.3958 139.833 61.875 139.938C61.3542 140.031 60.8281 140.052 60.2969 140C59.8385 139.938 59.3802 139.797 58.9219 139.578C58.474 139.349 58.1094 139.083 57.8281 138.781C57.5052 138.396 57.2344 137.917 57.0156 137.344C56.7969 136.771 56.6875 136.115 56.6875 135.375C56.6875 134.75 56.7656 134.182 56.9219 133.672C57.0885 133.151 57.3281 132.703 57.6406 132.328C57.9427 131.953 58.3281 131.646 58.7969 131.406C59.276 131.167 59.8333 131.047 60.4688 131.047C61 131.047 61.4948 131.161 61.9531 131.391C62.4115 131.62 62.7708 131.911 63.0312 132.266C63.5 132.88 63.7344 133.896 63.7344 135.312V136.266H58.8125ZM66.7188 139.812H64.7031V127.891H66.7188V139.812ZM74.6719 134.406H72.6094C72.6094 133.844 72.5052 133.427 72.2969 133.156C72.0885 132.875 71.7865 132.734 71.3906 132.734C70.9427 132.734 70.5417 132.964 70.1875 133.422C69.8438 133.87 69.6719 134.526 69.6719 135.391C69.6719 135.589 69.6927 135.802 69.7344 136.031C69.776 136.26 69.8333 136.484 69.9062 136.703C69.9896 136.964 70.1146 137.214 70.2812 137.453C70.4583 137.693 70.6823 137.896 70.9531 138.062C71.0469 138.115 71.1875 138.167 71.375 138.219C71.5625 138.271 71.7917 138.297 72.0625 138.297C72.2396 138.297 72.526 138.26 72.9219 138.188C73.3177 138.104 73.8281 137.891 74.4531 137.547V139.281C73.8802 139.615 73.3333 139.833 72.8125 139.938C72.2917 140.031 71.7656 140.052 71.2344 140C70.776 139.938 70.3177 139.797 69.8594 139.578C69.4115 139.349 69.0469 139.083 68.7656 138.781C68.4427 138.396 68.1719 137.917 67.9531 137.344C67.7344 136.771 67.625 136.115 67.625 135.375C67.625 134.75 67.7031 134.182 67.8594 133.672C68.026 133.151 68.2656 132.703 68.5781 132.328C68.8802 131.943 69.276 131.635 69.7656 131.406C70.2552 131.167 70.8125 131.047 71.4375 131.047C71.8958 131.047 72.3177 131.125 72.7031 131.281C73.0885 131.427 73.4219 131.625 73.7031 131.875C73.9948 132.125 74.2292 132.438 74.4062 132.812C74.5833 133.177 74.6719 133.708 74.6719 134.406ZM80.6875 135.547C80.6875 135.141 80.6406 134.75 80.5469 134.375C80.4531 133.99 80.3229 133.672 80.1562 133.422C79.9896 133.172 79.7969 132.995 79.5781 132.891C79.3594 132.776 79.151 132.719 78.9531 132.719C78.7552 132.719 78.5469 132.776 78.3281 132.891C78.1094 132.995 77.9115 133.172 77.7344 133.422C77.5781 133.672 77.4531 133.99 77.3594 134.375C77.2656 134.75 77.2188 135.141 77.2188 135.547C77.2188 135.943 77.2656 136.328 77.3594 136.703C77.4531 137.068 77.5781 137.38 77.7344 137.641C77.9115 137.891 78.1094 138.068 78.3281 138.172C78.5469 138.276 78.7552 138.328 78.9531 138.328C79.151 138.328 79.3594 138.276 79.5781 138.172C79.7969 138.068 79.9896 137.891 80.1562 137.641C80.3229 137.38 80.4531 137.068 80.5469 136.703C80.6406 136.328 80.6875 135.943 80.6875 135.547ZM82.7344 135.547C82.7344 136.141 82.6458 136.719 82.4688 137.281C82.3021 137.833 82.0573 138.312 81.7344 138.719C81.3906 139.135 80.974 139.453 80.4844 139.672C79.9948 139.891 79.4844 140 78.9531 140C78.4219 140 77.9115 139.891 77.4219 139.672C76.9323 139.453 76.5156 139.135 76.1719 138.719C75.849 138.312 75.599 137.833 75.4219 137.281C75.2552 136.719 75.1719 136.141 75.1719 135.547C75.1719 134.943 75.2552 134.365 75.4219 133.812C75.599 133.25 75.849 132.766 76.1719 132.359C76.5156 131.932 76.9323 131.609 77.4219 131.391C77.9115 131.161 78.4219 131.047 78.9531 131.047C79.4844 131.047 79.9948 131.161 80.4844 131.391C80.974 131.609 81.3906 131.932 81.7344 132.359C82.0573 132.766 82.3021 133.25 82.4688 133.812C82.6458 134.365 82.7344 134.943 82.7344 135.547ZM93.7812 139.812H91.8438V135.031C91.8438 134.708 91.8281 134.396 91.7969 134.094C91.776 133.781 91.7344 133.547 91.6719 133.391C91.599 133.203 91.5052 133.078 91.3906 133.016C91.2865 132.943 91.1615 132.906 91.0156 132.906C90.7448 132.906 90.4792 133.083 90.2188 133.438C89.9688 133.781 89.7969 134.292 89.7031 134.969C89.6719 135.188 89.651 135.385 89.6406 135.562C89.6302 135.729 89.625 135.927 89.625 136.156V139.812H87.7344V135.031C87.7344 134.708 87.7188 134.401 87.6875 134.109C87.6667 133.818 87.6198 133.578 87.5469 133.391C87.474 133.203 87.3854 133.078 87.2812 133.016C87.1771 132.943 87.0365 132.906 86.8594 132.906C86.6719 132.906 86.4948 132.979 86.3281 133.125C86.1719 133.271 86.026 133.51 85.8906 133.844C85.7656 134.177 85.6719 134.531 85.6094 134.906C85.5573 135.271 85.526 135.667 85.5156 136.094V139.812H83.5781V131.234H85.5156V131.875C85.7344 131.604 85.9688 131.401 86.2188 131.266C86.4792 131.12 86.7292 131.047 86.9688 131.047C87.7188 131.047 88.3021 131.271 88.7188 131.719C88.8854 131.917 89.0208 132.12 89.125 132.328C89.1875 132.224 89.2656 132.115 89.3594 132C89.849 131.365 90.4479 131.047 91.1562 131.047C91.9271 131.047 92.5573 131.312 93.0469 131.844C93.5365 132.375 93.7812 133.172 93.7812 134.234V139.812Z" fill="#F9F9F9"/>
<path d="M70.0947 66.1382L76.6947 60.1382C76.8177 60.0224 76.9648 59.9301 77.1275 59.8665C77.2901 59.803 77.4651 59.7696 77.6421 59.7682C77.8192 59.7668 77.9947 59.7974 78.1586 59.8584C78.3225 59.9193 78.4713 60.0093 78.5965 60.1231C78.7217 60.237 78.8207 60.3723 78.8878 60.5213C78.9548 60.6702 78.9885 60.8298 78.987 60.9908C78.9855 61.1517 78.9487 61.3108 78.8788 61.4587C78.8089 61.6065 78.7073 61.7403 78.58 61.8521L71.0373 68.7091C70.7873 68.9363 70.4482 69.064 70.0947 69.064C69.7411 69.064 69.402 68.9363 69.152 68.7091L61.6093 61.8521C61.482 61.7403 61.3804 61.6065 61.3105 61.4587C61.2407 61.3108 61.2039 61.1517 61.2023 60.9908C61.2008 60.8298 61.2345 60.6702 61.3016 60.5213C61.3686 60.3723 61.4676 60.237 61.5928 60.1231C61.718 60.0093 61.8669 59.9193 62.0307 59.8584C62.1946 59.7974 62.3702 59.7668 62.5472 59.7682C62.7242 59.7696 62.8992 59.803 63.0619 59.8665C63.2245 59.9301 63.3717 60.0224 63.4947 60.1382L70.0947 66.1382Z" fill="#403D52"/>
<defs>
<filter id="filter0_d" x="7" y="78" width="124" height="114" filterUnits="userSpaceOnUse" color-interpolation-filters="sRGB">
<feFlood flood-opacity="0" result="BackgroundImageFix"/>
<feColorMatrix in="SourceAlpha" type="matrix" values="0 0 0 0 0 0 0 0 0 0 0 0 0 0 0 0 0 0 127 0"/>
<feOffset/>
<feGaussianBlur stdDeviation="2"/>
<feColorMatrix type="matrix" values="0 0 0 0 0 0 0 0 0 0 0 0 0 0 0 0 0 0 0.25 0"/>
<feBlend mode="normal" in2="BackgroundImageFix" result="effect1_dropShadow"/>
<feBlend mode="normal" in="SourceGraphic" in2="effect1_dropShadow" result="shape"/>
</filter>
<filter id="filter1_d" x="45" y="27" width="23" height="22.3182" filterUnits="userSpaceOnUse" color-interpolation-filters="sRGB">
<feFlood flood-opacity="0" result="BackgroundImageFix"/>
<feColorMatrix in="SourceAlpha" type="matrix" values="0 0 0 0 0 0 0 0 0 0 0 0 0 0 0 0 0 0 127 0"/>
<feOffset/>
<feGaussianBlur stdDeviation="2"/>
<feColorMatrix type="matrix" values="0 0 0 0 0 0 0 0 0 0 0 0 0 0 0 0 0 0 0.25 0"/>
<feBlend mode="normal" in2="BackgroundImageFix" result="effect1_dropShadow"/>
<feBlend mode="normal" in="SourceGraphic" in2="effect1_dropShadow" result="shape"/>
</filter>
<filter id="filter2_d" x="72" y="27" width="23" height="22.3182" filterUnits="userSpaceOnUse" color-interpolation-filters="sRGB">
<feFlood flood-opacity="0" result="BackgroundImageFix"/>
<feColorMatrix in="SourceAlpha" type="matrix" values="0 0 0 0 0 0 0 0 0 0 0 0 0 0 0 0 0 0 127 0"/>
<feOffset/>
<feGaussianBlur stdDeviation="2"/>
<feColorMatrix type="matrix" values="0 0 0 0 0 0 0 0 0 0 0 0 0 0 0 0 0 0 0.25 0"/>
<feBlend mode="normal" in2="BackgroundImageFix" result="effect1_dropShadow"/>
<feBlend mode="normal" in="SourceGraphic" in2="effect1_dropShadow" result="shape"/>
</filter>
<filter id="filter3_d" x="31" y="170" width="33" height="36" filterUnits="userSpaceOnUse" color-interpolation-filters="sRGB">
<feFlood flood-opacity="0" result="BackgroundImageFix"/>
<feColorMatrix in="SourceAlpha" type="matrix" values="0 0 0 0 0 0 0 0 0 0 0 0 0 0 0 0 0 0 127 0"/>
<feOffset/>
<feGaussianBlur stdDeviation="2"/>
<feColorMatrix type="matrix" values="0 0 0 0 0 0 0 0 0 0 0 0 0 0 0 0 0 0 0.25 0"/>
<feBlend mode="normal" in2="BackgroundImageFix" result="effect1_dropShadow"/>
<feBlend mode="normal" in="SourceGraphic" in2="effect1_dropShadow" result="shape"/>
</filter>
<filter id="filter4_d" x="77" y="170" width="33" height="36" filterUnits="userSpaceOnUse" color-interpolation-filters="sRGB">
<feFlood flood-opacity="0" result="BackgroundImageFix"/>
<feColorMatrix in="SourceAlpha" type="matrix" values="0 0 0 0 0 0 0 0 0 0 0 0 0 0 0 0 0 0 127 0"/>
<feOffset/>
<feGaussianBlur stdDeviation="2"/>
<feColorMatrix type="matrix" values="0 0 0 0 0 0 0 0 0 0 0 0 0 0 0 0 0 0 0.25 0"/>
<feBlend mode="normal" in2="BackgroundImageFix" result="effect1_dropShadow"/>
<feBlend mode="normal" in="SourceGraphic" in2="effect1_dropShadow" result="shape"/>
</filter>
<filter id="filter5_d" x="106" y="96" width="33" height="36" filterUnits="userSpaceOnUse" color-interpolation-filters="sRGB">
<feFlood flood-opacity="0" result="BackgroundImageFix"/>
<feColorMatrix in="SourceAlpha" type="matrix" values="0 0 0 0 0 0 0 0 0 0 0 0 0 0 0 0 0 0 127 0"/>
<feOffset/>
<feGaussianBlur stdDeviation="2"/>
<feColorMatrix type="matrix" values="0 0 0 0 0 0 0 0 0 0 0 0 0 0 0 0 0 0 0.25 0"/>
<feBlend mode="normal" in2="BackgroundImageFix" result="effect1_dropShadow"/>
<feBlend mode="normal" in="SourceGraphic" in2="effect1_dropShadow" result="shape"/>
</filter>
<filter id="filter6_d" x="0" y="96" width="33" height="36" filterUnits="userSpaceOnUse" color-interpolation-filters="sRGB">
<feFlood flood-opacity="0" result="BackgroundImageFix"/>
<feColorMatrix in="SourceAlpha" type="matrix" values="0 0 0 0 0 0 0 0 0 0 0 0 0 0 0 0 0 0 127 0"/>
<feOffset/>
<feGaussianBlur stdDeviation="2"/>
<feColorMatrix type="matrix" values="0 0 0 0 0 0 0 0 0 0 0 0 0 0 0 0 0 0 0.25 0"/>
<feBlend mode="normal" in2="BackgroundImageFix" result="effect1_dropShadow"/>
<feBlend mode="normal" in="SourceGraphic" in2="effect1_dropShadow" result="shape"/>
</filter>
<filter id="filter7_d" x="16" y="21" width="27" height="38" filterUnits="userSpaceOnUse" color-interpolation-filters="sRGB">
<feFlood flood-opacity="0" result="BackgroundImageFix"/>
<feColorMatrix in="SourceAlpha" type="matrix" values="0 0 0 0 0 0 0 0 0 0 0 0 0 0 0 0 0 0 127 0"/>
<feOffset/>
<feGaussianBlur stdDeviation="2"/>
<feColorMatrix type="matrix" values="0 0 0 0 0 0 0 0 0 0 0 0 0 0 0 0 0 0 0.25 0"/>
<feBlend mode="normal" in2="BackgroundImageFix" result="effect1_dropShadow"/>
<feBlend mode="normal" in="SourceGraphic" in2="effect1_dropShadow" result="shape"/>
</filter>
<filter id="filter8_d" x="96" y="21" width="27" height="38" filterUnits="userSpaceOnUse" color-interpolation-filters="sRGB">
<feFlood flood-opacity="0" result="BackgroundImageFix"/>
<feColorMatrix in="SourceAlpha" type="matrix" values="0 0 0 0 0 0 0 0 0 0 0 0 0 0 0 0 0 0 127 0"/>
<feOffset/>
<feGaussianBlur stdDeviation="2"/>
<feColorMatrix type="matrix" values="0 0 0 0 0 0 0 0 0 0 0 0 0 0 0 0 0 0 0.25 0"/>
<feBlend mode="normal" in2="BackgroundImageFix" result="effect1_dropShadow"/>
<feBlend mode="normal" in="SourceGraphic" in2="effect1_dropShadow" result="shape"/>
</filter>
<filter id="filter9_d" x="36" y="119" width="67" height="33" filterUnits="userSpaceOnUse" color-interpolation-filters="sRGB">
<feFlood flood-opacity="0" result="BackgroundImageFix"/>
<feColorMatrix in="SourceAlpha" type="matrix" values="0 0 0 0 0 0 0 0 0 0 0 0 0 0 0 0 0 0 127 0"/>
<feOffset/>
<feGaussianBlur stdDeviation="2"/>
<feColorMatrix type="matrix" values="0 0 0 0 0 0 0 0 0 0 0 0 0 0 0 0 0 0 0.25 0"/>
<feBlend mode="normal" in2="BackgroundImageFix" result="effect1_dropShadow"/>
<feBlend mode="normal" in="SourceGraphic" in2="effect1_dropShadow" result="shape"/>
</filter>
</defs>
</svg>
